<svg id="Capa_1" class="svg-style" fill="#EF4444" enable-background="new 0 0 511.998 511.998" height="512"
     viewBox="0 0 511.998 511.998"
     width="512" xmlns="http://www.w3.org/2000/svg">
    <g>
        <path
                d="m162.359 31.063c-4.143 0-7.5 3.358-7.5 7.5v31.062c0 4.142 3.357 7.5 7.5 7.5s7.5-3.358 7.5-7.5v-31.062c0-4.143-3.357-7.5-7.5-7.5z"/>
        <path
                d="m131.297 31.063c-4.143 0-7.5 3.358-7.5 7.5v31.062c0 4.142 3.357 7.5 7.5 7.5s7.5-3.358 7.5-7.5v-31.062c0-4.143-3.358-7.5-7.5-7.5z"/>
        <path
                d="m193.421 31.063c-4.143 0-7.5 3.358-7.5 7.5v31.062c0 4.142 3.357 7.5 7.5 7.5s7.5-3.358 7.5-7.5v-31.062c0-4.143-3.358-7.5-7.5-7.5z"/>
        <path
                d="m224.483 31.063c-4.143 0-7.5 3.358-7.5 7.5v31.062c0 4.142 3.357 7.5 7.5 7.5s7.5-3.358 7.5-7.5v-31.062c0-4.143-3.357-7.5-7.5-7.5z"/>
        <path
                d="m255.546 31.063c-4.143 0-7.5 3.358-7.5 7.5v31.062c0 4.142 3.357 7.5 7.5 7.5s7.5-3.358 7.5-7.5v-31.062c0-4.143-3.358-7.5-7.5-7.5z"/>
        <path
                d="m286.607 31.063c-4.143 0-7.5 3.358-7.5 7.5v31.062c0 4.142 3.357 7.5 7.5 7.5s7.5-3.358 7.5-7.5v-31.062c0-4.143-3.357-7.5-7.5-7.5z"/>
        <path
                d="m317.67 31.063c-4.143 0-7.5 3.358-7.5 7.5v31.062c0 4.142 3.357 7.5 7.5 7.5s7.5-3.358 7.5-7.5v-31.062c0-4.143-3.357-7.5-7.5-7.5z"/>
        <path
                d="m198.491 332.596c-5.239 8.946-8.257 19.344-8.257 30.438v9.186c0 4.086 3.432 7.5 7.521 7.5h44.834c33.325 0 60.438-27.112 60.438-60.437v-9.186c0-4.142-3.357-7.5-7.5-7.5h-38.403c-6.307-26.978-30.506-46.589-58.83-46.589h-44.85c-4.143 0-7.5 3.358-7.5 7.5v9.18c-.001 30.65 22.938 56.027 52.547 59.908zm52.445-14.999h.061 37.029c-.464 24.804-19.503 47.123-45.438 47.123h-19.171l24.686-15.761c3.491-2.229 4.515-6.866 2.285-10.357-2.229-3.492-6.866-4.514-10.357-2.285l-34.561 22.066c2.337-22.877 21.717-40.785 45.201-40.785h.265zm-89.993-46.589h37.35c20.315 0 37.809 13.412 43.491 32.248-2.95.437-5.83 1.089-8.626 1.938l-24.218-15.466c-3.491-2.229-8.129-1.207-10.358 2.284s-1.206 8.128 2.284 10.357l16.289 10.403c-2.423 1.621-4.723 3.412-6.883 5.357h-3.889c-26.364-.001-44.457-22.351-45.44-47.121z"/>
        <path
                d="m411.743 434.815h-8.545c11.689-10.614 19.041-25.924 19.041-42.92 0-23.788-14.406-44.266-34.946-53.194v-145.363c0-11.741-5.607-22.956-15-30l-47.119-35.34v-19.811h8.559c12.406 0 22.5-10.093 22.5-22.5v-63.187c0-12.407-10.094-22.5-22.5-22.5h-218.499c-12.406 0-22.5 10.093-22.5 22.5v63.187c0 12.407 10.094 22.5 22.5 22.5h8.559v19.868l-47.109 35.283c-9.398 7.048-15.01 18.271-15.01 30.02v281.14c0 20.678 16.822 37.5 37.5 37.5l312.569-.021c21.273 0 38.581-17.307 38.581-38.581s-17.307-38.581-38.581-38.581zm-5.172-50.419h-84.615c3.56-20.132 21.17-35.476 42.308-35.476s38.747 15.343 42.307 35.476zm-65.378-166.958h-233.42v-19.777l36.379-27.253 160.652-.058 36.389 27.289zm-225.959-124.251c-4.136 0-7.5-3.364-7.5-7.5v-63.187c0-4.136 3.364-7.5 7.5-7.5h218.498c4.136 0 7.5 3.364 7.5 7.5v63.187c0 4.136-3.364 7.5-7.5 7.5zm-38.56 381.311v-281.14c0-7.053 3.368-13.789 9.006-18.017l48.111-36.033 105.414-.03c4.143-.001 7.499-3.36 7.498-7.502 0-.005-.001-.009-.001-.014s.001-.009.001-.014c0-4.142-3.357-7.5-7.5-7.5h-100.41v-16.06h171.381v16.06h-38.28c-4.143 0-7.5 3.358-7.5 7.5v.006s0 .004 0 .006c.001 4.142 3.359 7.5 7.502 7.499l43.279-.009 48.118 36.089c5.636 4.227 9 10.955 9 18v141.15c-5.367-.76-10.733-.758-16.1.005v-140.606c0-2.361-1.111-4.583-3-6l-41.39-31.04c-1.299-.974-2.877-1.5-4.5-1.5-.001 0-.002 0-.003 0l-165.65.06c-1.62 0-3.197.526-4.494 1.498l-41.38 31c-1.89 1.416-3.003 3.64-3.003 6.002l-.04 100.58c0 4.142 3.357 7.5 7.5 7.5.007 0 .013-.001.02-.001s.013.001.02.001c4.143 0 7.5-3.358 7.5-7.5v-62.05h233.42v106.282c-24.557 10.696-39.16 38.907-33.67 65.088h-199.75v-76.63c0-4.142-3.357-7.5-7.5-7.5-.007 0-.013.001-.02.001s-.013-.001-.02-.001c-4.143 0-7.5 3.358-7.5 7.5l.04 146.22c0 4.142 3.357 7.5 7.5 7.5h88.28c4.143 0 7.5-3.358 7.5-7.5s-3.357-7.5-7.5-7.5h-80.78v-47.09h205.163c3.179 6.039 7.381 11.458 12.392 16.007h-6.734c-18.708 0-34.343 13.386-37.844 31.083h-59.507c-4.143 0-7.5 3.358-7.5 7.5s3.357 7.5 7.5 7.5h59.508c1.183 5.975 3.753 11.456 7.354 16.099l-188.931.001c-12.406 0-22.5-10.093-22.5-22.5zm280.994 22.479h-39.074c-12.998 0-23.573-10.571-23.581-23.566 0-.004 0-.008 0-.012 0-.005-.001-.009-.001-.014.006-12.997 10.582-23.569 23.581-23.569h39.074v47.161zm4.455-62.162c-20.177-.995-36.728-15.972-40.167-35.42h84.615c-3.439 19.448-19.99 34.425-40.166 35.42zm49.62 62.162h-39.075v-47.161h39.075c13.003 0 23.581 10.578 23.581 23.581s-10.578 23.58-23.581 23.58z"/>
    </g>
</svg>
